<svg xmlns="http://www.w3.org/2000/svg" viewBox="0 0 32 32" fill="none">
  <rect x="24.0" y="4.0" width="4.0" height="4.0" fill="#22c55e"/>
  <rect x="28.0" y="4.0" width="4.0" height="4.0" fill="#22c55e"/>
  <rect x="20.0" y="8.0" width="4.0" height="4.0" fill="#22c55e"/>
  <rect x="24.0" y="8.0" width="4.0" height="4.0" fill="#22c55e"/>
  <rect x="16.0" y="12.0" width="4.0" height="4.0" fill="#22c55e"/>
  <rect x="20.0" y="12.0" width="4.0" height="4.0" fill="#22c55e"/>
  <rect x="12.0" y="16.0" width="4.0" height="4.0" fill="#22c55e"/>
  <rect x="16.0" y="16.0" width="4.0" height="4.0" fill="#22c55e"/>
  <rect x="0.0" y="20.0" width="4.0" height="4.0" fill="#22c55e"/>
  <rect x="4.0" y="20.0" width="4.0" height="4.0" fill="#22c55e"/>
  <rect x="12.0" y="20.0" width="4.0" height="4.0" fill="#22c55e"/>
  <rect x="4.0" y="24.0" width="4.0" height="4.0" fill="#22c55e"/>
  <rect x="8.0" y="24.0" width="4.0" height="4.0" fill="#22c55e"/>
  <rect x="12.0" y="24.0" width="4.0" height="4.0" fill="#22c55e"/>
  <rect x="8.0" y="28.0" width="4.0" height="4.0" fill="#22c55e"/>
</svg>
